<?xml version="1.0" encoding="UTF-8" standalone="no"?>
<!DOCTYPE svg PUBLIC "-//W3C//DTD SVG 1.1//EN" "http://www.w3.org/Graphics/SVG/1.1/DTD/svg11.dtd">
<svg version="1.1" xmlns="http://www.w3.org/2000/svg" xmlns:xlink="http://www.w3.org/1999/xlink" preserveAspectRatio="xMidYMid meet" viewBox="0 0 640 640" width="640" height="640"><defs><path d="M492.23 56L494.25 56.07L496.26 56.16L498.27 56.28L500.28 56.43L502.28 56.6L504.28 56.8L506.27 57.03L508.26 57.28L510.24 57.56L512.22 57.86L514.19 58.2L516.15 58.55L518.11 58.94L520.06 59.34L522.01 59.78L523.94 60.24L525.88 60.73L527.8 61.24L529.72 61.78L531.63 62.34L533.53 62.93L535.42 63.54L537.3 64.18L539.18 64.85L541.05 65.54L542.9 66.25L544.75 66.99L546.59 67.76L548.42 68.55L550.24 69.36L552.05 70.2L553.85 71.07L555.64 71.96L557.42 72.87L559.19 73.81L560.95 74.77L562.69 75.76L564.43 76.77L636.52 57.45L620.46 117.41L682 125.52L636.56 184.74L636.63 185.26L636.7 185.78L636.77 186.3L636.84 186.83L636.9 187.35L636.97 187.87L637.03 188.4L637.09 188.92L637.15 189.45L637.2 189.97L637.26 190.5L637.31 191.02L637.36 191.55L637.41 192.07L637.46 192.6L637.5 193.13L637.54 193.65L637.59 194.18L637.63 194.71L637.66 195.23L637.7 195.76L637.73 196.29L637.77 196.82L637.8 197.34L637.82 197.87L637.85 198.4L637.88 198.93L637.9 199.46L637.92 199.98L637.94 200.51L637.96 201.04L637.97 201.57L637.99 202.1L638 202.63L638.01 203.16L638.02 203.68L638.02 204.21L638.03 204.74L638.03 205.27L638.03 205.8L638.03 225.78L637.95 233.8L637.72 241.79L637.33 249.76L636.79 257.7L636.09 265.6L635.24 273.48L634.24 281.32L633.09 289.12L631.79 296.89L630.33 304.61L628.73 312.29L626.98 319.94L625.08 327.53L623.04 335.08L620.84 342.58L618.51 350.03L616.02 357.43L613.4 364.78L610.63 372.07L607.71 379.3L604.66 386.47L601.46 393.59L598.13 400.64L594.65 407.62L591.04 414.54L587.28 421.4L583.39 428.18L579.36 434.9L575.2 441.54L570.9 448.1L566.46 454.59L561.89 461.01L557.19 467.34L552.36 473.59L547.39 479.76L542.29 485.84L537.06 491.84L531.7 497.74L526.22 503.56L520.6 509.29L514.87 514.9L509.06 520.39L503.15 525.75L497.15 530.98L491.07 536.08L484.9 541.04L478.65 545.88L472.32 550.58L465.91 555.15L459.42 559.59L452.85 563.89L446.21 568.05L439.49 572.08L432.71 575.97L425.86 579.72L418.94 583.34L411.95 586.82L404.9 590.15L397.78 593.35L390.61 596.4L383.38 599.32L376.09 602.09L368.74 604.71L361.34 607.19L353.89 609.53L346.39 611.72L338.84 613.77L331.25 615.67L323.61 617.42L315.92 619.02L308.2 620.47L300.43 621.78L292.63 622.93L284.79 623.93L276.92 624.78L269.01 625.48L261.07 626.02L253.11 626.41L245.11 626.64L237.09 626.72L230.93 626.67L224.79 626.54L218.66 626.3L212.54 625.98L206.44 625.57L200.35 625.06L194.28 624.46L188.23 623.78L182.19 623L176.18 622.13L170.18 621.17L164.21 620.12L158.25 618.98L152.32 617.75L146.42 616.43L140.53 615.03L134.67 613.53L128.84 611.95L123.03 610.28L117.25 608.52L111.5 606.67L105.78 604.73L100.08 602.71L94.42 600.6L88.79 598.41L83.19 596.12L77.62 593.75L72.09 591.3L66.59 588.76L61.12 586.14L55.69 583.42L50.3 580.63L44.95 577.75L39.63 574.78L34.35 571.74L29.11 568.6L23.92 565.39L18.76 562.09L13.65 558.7L8.58 555.24L0 549.28L0 515.63L22.81 518.89L23.66 519.01L24.52 519.13L25.38 519.24L26.24 519.35L27.1 519.46L27.96 519.57L28.82 519.67L29.68 519.77L30.54 519.87L31.4 519.96L32.26 520.05L33.12 520.14L33.98 520.23L34.85 520.31L35.71 520.39L36.57 520.46L37.44 520.53L38.3 520.6L39.16 520.67L40.03 520.73L40.89 520.79L41.75 520.85L42.62 520.9L43.48 520.95L44.34 521L45.21 521.05L46.07 521.09L46.93 521.13L47.8 521.16L48.66 521.19L49.52 521.22L50.38 521.25L51.25 521.27L52.11 521.29L52.97 521.31L53.83 521.32L54.69 521.34L55.55 521.34L56.41 521.35L57.27 521.35L61.15 521.32L65.02 521.23L68.89 521.07L72.74 520.85L76.59 520.58L80.42 520.24L84.24 519.84L88.06 519.38L91.85 518.86L95.64 518.29L99.41 517.65L103.17 516.95L106.91 516.2L110.63 515.38L114.34 514.51L118.03 513.58L121.71 512.59L125.36 511.55L129 510.45L132.62 509.29L136.21 508.07L139.79 506.8L143.34 505.47L146.87 504.09L150.38 502.65L153.87 501.16L157.33 499.61L160.77 498.01L164.18 496.36L167.56 494.65L170.92 492.89L174.25 491.07L177.56 489.2L180.83 487.28L184.08 485.3L187.29 483.28L190.48 481.2L193.63 479.07L196.76 476.89L199.85 474.66L197.61 474.4L195.38 474.1L193.15 473.77L190.93 473.41L188.72 473.02L186.51 472.59L184.31 472.13L182.13 471.64L179.94 471.11L177.77 470.55L175.61 469.96L173.46 469.34L171.31 468.69L169.18 468L167.06 467.29L164.94 466.54L162.84 465.76L160.76 464.95L158.68 464.11L156.62 463.23L154.56 462.33L152.53 461.4L150.5 460.43L148.49 459.44L146.49 458.41L144.51 457.36L142.55 456.27L140.59 455.16L138.66 454.01L136.74 452.84L134.83 451.63L132.95 450.4L131.08 449.14L129.23 447.85L127.39 446.53L125.58 445.18L123.78 443.8L122 442.39L120.24 440.96L118.5 439.5L103.31 426.52L126.67 399.17L123.04 397.92L119.45 396.58L115.91 395.16L112.41 393.64L108.96 392.04L105.55 390.36L102.2 388.59L98.89 386.75L95.63 384.82L92.43 382.81L89.28 380.72L86.19 378.56L83.15 376.32L80.18 374L77.26 371.61L74.4 369.15L71.61 366.62L68.87 364.01L66.21 361.34L63.61 358.6L61.08 355.79L58.62 352.92L56.23 349.99L53.91 346.99L51.66 343.93L49.49 340.81L47.4 337.62L45.38 334.38L43.44 331.09L41.59 327.74L39.81 324.33L38.12 320.87L36.51 317.35L34.99 313.79L33.56 310.17L32.21 306.51L30.96 302.8L29.79 299.04L28.72 295.24L27.74 291.39L23.08 271.96L46.83 266.26L45.97 265.09L45.11 263.91L44.27 262.73L43.43 261.54L42.61 260.34L41.8 259.13L41 257.91L40.21 256.68L39.44 255.45L38.67 254.21L37.92 252.97L37.18 251.71L36.45 250.45L35.74 249.18L35.03 247.91L34.34 246.63L33.66 245.34L32.99 244.04L32.33 242.74L31.69 241.43L31.06 240.12L30.44 238.8L29.84 237.47L29.24 236.14L28.66 234.8L28.1 233.46L27.54 232.11L27 230.76L26.47 229.4L25.96 228.03L25.46 226.66L24.97 225.29L24.49 223.9L24.03 222.52L23.58 221.13L23.15 219.74L22.73 218.34L22.32 216.93L21.93 215.53L21.55 214.11L20.93 211.71L20.36 209.3L19.82 206.89L19.33 204.47L18.88 202.05L18.46 199.63L18.09 197.21L17.76 194.78L17.46 192.35L17.21 189.93L17 187.5L16.82 185.07L16.69 182.64L16.59 180.21L16.54 177.78L16.52 175.35L16.55 172.93L16.61 170.5L16.72 168.08L16.86 165.66L17.05 163.24L17.27 160.83L17.54 158.41L17.84 156L18.18 153.6L18.56 151.2L18.98 148.8L19.45 146.41L19.95 144.03L20.49 141.65L21.07 139.27L21.69 136.9L22.34 134.54L23.04 132.19L23.78 129.84L24.56 127.5L25.37 125.17L26.23 122.84L27.12 120.53L28.06 118.22L28.36 117.48L28.68 116.75L28.99 116.01L29.31 115.27L29.64 114.54L29.97 113.81L30.3 113.08L30.64 112.35L30.98 111.63L31.32 110.9L31.67 110.18L32.02 109.46L32.37 108.74L32.73 108.02L33.1 107.31L33.46 106.59L33.83 105.88L34.21 105.17L34.58 104.47L34.97 103.76L35.35 103.06L35.74 102.36L36.13 101.66L36.53 100.96L36.93 100.26L37.33 99.57L37.74 98.88L38.15 98.19L38.57 97.51L38.98 96.82L39.4 96.14L39.83 95.46L40.26 94.79L40.69 94.11L41.13 93.44L41.57 92.77L42.01 92.11L42.46 91.44L42.91 90.78L43.36 90.12L58.68 67.95L75.44 89.06L80.36 95.12L85.39 101.06L90.53 106.87L95.77 112.56L101.12 118.12L106.57 123.55L112.12 128.86L117.77 134.03L123.52 139.08L129.36 143.99L135.3 148.77L141.32 153.42L147.43 157.93L153.63 162.31L159.91 166.55L166.28 170.65L172.72 174.61L179.25 178.44L185.85 182.12L192.52 185.66L199.26 189.06L206.08 192.32L212.96 195.43L219.91 198.39L226.92 201.21L233.99 203.88L241.12 206.41L248.31 208.78L255.56 211L262.86 213.07L270.21 214.99L277.61 216.76L285.05 218.37L292.54 219.83L300.08 221.12L307.65 222.27L315.27 223.25L322.92 224.07L330.61 224.74L338.33 225.24L338.33 205.8L338.45 199.63L338.82 193.53L339.44 187.49L340.29 181.52L341.38 175.64L342.69 169.83L344.22 164.11L345.98 158.49L347.95 152.95L350.12 147.53L352.5 142.2L355.08 136.99L357.85 131.9L360.81 126.92L363.95 122.07L367.28 117.36L370.78 112.77L374.44 108.33L378.27 104.03L382.27 99.89L386.41 95.89L390.71 92.06L395.15 88.4L399.74 84.9L404.45 81.57L409.3 78.43L414.28 75.47L419.37 72.7L424.58 70.12L429.91 67.74L435.33 65.56L440.87 63.6L446.49 61.84L452.21 60.31L458.02 59L463.9 57.91L469.87 57.06L475.91 56.44L482.01 56.07L488.18 55.95L490.21 55.96L492.23 56ZM479.18 96.27L474.75 96.72L470.38 97.35L466.06 98.14L461.8 99.11L457.61 100.23L453.48 101.52L449.43 102.96L445.45 104.56L441.54 106.3L437.72 108.19L433.98 110.22L430.34 112.39L426.78 114.7L423.32 117.14L419.96 119.7L416.7 122.39L413.55 125.2L410.51 128.13L407.58 131.17L404.77 134.32L402.08 137.58L399.52 140.94L397.08 144.4L394.77 147.95L392.6 151.6L390.57 155.34L388.68 159.16L386.94 163.06L385.34 167.05L383.9 171.1L382.61 175.23L381.49 179.42L380.52 183.68L379.73 188L379.1 192.37L378.65 196.8L378.38 201.28L378.29 205.8L378.29 265.74L358.31 265.74L349.85 265.65L341.42 265.39L333.02 264.96L324.65 264.35L316.32 263.57L308.03 262.63L299.78 261.51L291.56 260.23L283.4 258.78L275.28 257.16L267.2 255.38L259.18 253.44L251.21 251.33L243.3 249.07L235.44 246.64L227.64 244.05L219.9 241.3L212.23 238.4L204.62 235.34L197.08 232.12L189.61 228.75L182.2 225.23L174.88 221.55L167.63 217.72L160.46 213.75L153.36 209.62L146.35 205.35L139.43 200.92L132.59 196.36L125.84 191.64L119.18 186.78L112.61 181.78L106.14 176.64L99.77 171.36L93.5 165.93L87.32 160.37L81.26 154.67L75.29 148.83L69.44 142.86L63.69 136.75L62.49 140.09L61.41 143.46L60.44 146.84L59.58 150.24L58.83 153.65L58.19 157.08L57.66 160.51L57.25 163.96L56.94 167.4L56.74 170.85L56.65 174.3L56.66 177.74L56.78 181.18L57.01 184.6L57.34 188.02L57.78 191.42L58.32 194.81L58.96 198.17L59.71 201.52L60.55 204.83L61.5 208.13L62.55 211.39L63.7 214.62L64.95 217.81L66.29 220.97L67.73 224.08L69.27 227.16L70.91 230.18L72.64 233.16L74.47 236.09L76.39 238.96L78.4 241.78L80.51 244.54L82.71 247.24L85 249.88L87.39 252.44L89.86 254.94L92.42 257.37L95.07 259.72L97.81 262L129.56 287.5L73.01 301.07L74.26 303.8L75.58 306.49L76.97 309.14L78.43 311.74L79.95 314.29L81.53 316.8L83.18 319.26L84.9 321.66L86.67 324.02L88.5 326.33L90.4 328.58L92.35 330.78L94.35 332.93L96.41 335.02L98.53 337.06L100.7 339.03L102.92 340.95L105.19 342.81L107.5 344.61L109.87 346.34L112.28 348.01L114.74 349.62L117.25 351.17L119.79 352.65L122.38 354.06L125.01 355.4L127.68 356.67L130.39 357.88L133.13 359.01L135.91 360.07L138.72 361.06L141.57 361.98L144.45 362.81L147.36 363.58L150.3 364.26L153.27 364.87L156.27 365.4L159.29 365.85L162.34 366.21L165.41 366.5L204.51 369.57L160.83 420.7L162.09 421.42L163.36 422.12L164.64 422.81L165.92 423.47L167.21 424.12L168.51 424.76L169.82 425.37L171.14 425.97L172.46 426.55L173.79 427.12L175.13 427.66L176.47 428.19L177.82 428.7L179.18 429.2L180.55 429.67L181.92 430.13L183.29 430.57L184.67 430.99L186.06 431.39L187.45 431.78L188.85 432.15L190.25 432.5L191.66 432.83L193.07 433.14L194.49 433.43L195.91 433.71L197.34 433.97L198.77 434.21L200.2 434.43L201.64 434.63L203.08 434.81L204.52 434.97L205.97 435.12L207.42 435.24L208.87 435.35L210.33 435.43L211.78 435.5L213.24 435.55L214.71 435.58L216.17 435.59L217.02 435.59L217.87 435.58L218.71 435.56L219.56 435.54L220.41 435.51L221.25 435.47L222.1 435.43L222.95 435.38L223.79 435.33L224.63 435.27L225.48 435.2L226.32 435.13L227.16 435.05L228 434.96L228.84 434.87L229.68 434.77L230.52 434.67L231.35 434.55L232.19 434.44L233.02 434.31L233.86 434.18L234.69 434.04L235.52 433.9L236.35 433.75L237.18 433.59L238.01 433.43L238.84 433.26L239.66 433.09L240.49 432.91L241.31 432.72L242.13 432.52L242.96 432.32L243.77 432.12L244.59 431.9L245.41 431.69L246.22 431.46L247.04 431.23L247.85 430.99L248.66 430.75L249.47 430.5L261.02 426.87L282.94 448.78L270.92 462.83L267.53 466.73L264.07 470.55L260.55 474.31L256.97 477.99L253.33 481.6L249.63 485.14L245.87 488.61L242.06 492L238.19 495.31L234.27 498.56L230.29 501.72L226.26 504.81L222.18 507.83L218.06 510.77L213.88 513.63L209.65 516.41L205.38 519.12L201.07 521.74L196.71 524.29L192.3 526.75L187.86 529.14L183.37 531.44L178.84 533.67L174.28 535.81L169.67 537.87L165.03 539.84L160.36 541.74L155.65 543.54L150.91 545.27L146.13 546.91L141.33 548.46L136.49 549.93L131.63 551.31L126.73 552.61L121.81 553.81L116.87 554.93L111.9 555.96L106.91 556.9L101.89 557.75L96.86 558.52L100.17 559.89L103.49 561.24L106.82 562.55L110.17 563.83L113.53 565.07L116.9 566.28L120.28 567.46L123.68 568.6L127.08 569.7L130.5 570.78L133.93 571.82L137.36 572.82L140.81 573.79L144.27 574.73L147.74 575.63L151.22 576.49L154.7 577.33L158.2 578.12L161.71 578.89L165.22 579.61L168.75 580.31L172.28 580.96L175.82 581.59L179.37 582.18L182.93 582.73L186.49 583.25L190.06 583.73L193.64 584.17L197.23 584.59L200.82 584.96L204.42 585.3L208.03 585.61L211.64 585.88L215.26 586.11L218.89 586.31L222.52 586.47L226.15 586.6L229.79 586.69L233.44 586.74L237.09 586.76L251.95 586.46L266.65 585.56L281.2 584.08L295.57 582.03L309.75 579.41L323.74 576.25L337.51 572.55L351.07 568.33L364.39 563.59L377.47 558.35L390.29 552.62L402.84 546.41L415.12 539.73L427.1 532.6L438.78 525.03L450.14 517.02L461.18 508.59L471.88 499.76L482.23 490.53L492.22 480.91L501.84 470.92L511.07 460.57L519.91 449.87L528.33 438.83L536.34 427.47L543.91 415.79L551.04 403.8L557.72 391.53L563.93 378.98L569.66 366.15L574.9 353.08L579.64 339.75L583.86 326.2L587.56 312.42L590.72 298.44L593.34 284.25L595.39 269.89L596.87 255.34L597.77 240.64L598.07 225.78L598.07 205.8L598.07 205.24L598.07 204.67L598.06 204.11L598.05 203.55L598.04 202.99L598.02 202.42L598 201.86L597.98 201.3L597.96 200.74L597.93 200.18L597.9 199.62L597.87 199.05L597.83 198.49L597.79 197.93L597.75 197.37L597.71 196.81L597.66 196.25L597.61 195.69L597.56 195.14L597.51 194.58L597.45 194.02L597.39 193.46L597.32 192.91L597.26 192.35L597.19 191.79L597.12 191.24L597.04 190.68L596.96 190.13L596.88 189.58L596.8 189.02L596.71 188.47L596.63 187.92L596.54 187.37L596.44 186.82L596.34 186.27L596.24 185.72L596.14 185.17L596.04 184.62L595.93 184.07L595.82 183.53L593.98 174.58L608.16 156.1L570.06 151.09L580.01 113.97L557.47 120.01L549.89 114.86L548.52 113.94L547.14 113.05L545.74 112.17L544.33 111.32L542.92 110.49L541.49 109.68L540.05 108.89L538.6 108.13L537.14 107.39L535.67 106.67L534.2 105.97L532.71 105.3L531.21 104.65L529.71 104.02L528.19 103.42L526.67 102.83L525.14 102.27L523.6 101.74L522.06 101.22L520.5 100.73L518.94 100.27L517.38 99.82L515.8 99.4L514.22 99.01L512.63 98.63L511.04 98.29L509.44 97.96L507.83 97.66L506.22 97.38L504.6 97.12L502.98 96.89L501.35 96.69L499.72 96.5L498.08 96.35L496.44 96.21L494.8 96.1L493.15 96.02L491.49 95.96L489.84 95.92L488.18 95.91L483.66 96L479.18 96.27Z" id="drGgV2Vaj"></path></defs><g><g><g><use xlink:href="#drGgV2Vaj" opacity="1" fill="#ffffff" fill-opacity="1"></use><g><use xlink:href="#drGgV2Vaj" opacity="1" fill-opacity="0" stroke="#000000" stroke-width="1" stroke-opacity="1"></use></g></g></g></g></svg>