<?xml version="1.0" encoding="UTF-8" standalone="no"?>
<!DOCTYPE svg PUBLIC "-//W3C//DTD SVG 1.1//EN" "http://www.w3.org/Graphics/SVG/1.1/DTD/svg11.dtd">
<svg version="1.1" xmlns="http://www.w3.org/2000/svg" xmlns:xlink="http://www.w3.org/1999/xlink" preserveAspectRatio="xMidYMid meet" viewBox="0 0 633 633" width="633" height="633">
<defs><path d="M608.81 141.47C602.21 134.88 593.43 131.25 584.05 131.25C574.67 131.25 565.88 134.88 559.29 141.47C543.34 157.42 463.63 237.14 320.14 380.63C176.49 236.98 96.69 157.17 80.72 141.21C74.14 134.62 65.35 130.99 55.97 130.99C46.6 130.99 37.8 134.62 31.21 141.21C29.11 143.31 12.34 160.09 10.24 162.19C-3.41 175.83 -3.41 198.06 10.24 211.7C38.75 240.31 266.79 469.17 295.3 497.78C301.88 504.37 310.66 509.01 320.12 509.01C320.13 509.01 320.22 509.01 320.23 509.01C329.61 509.01 338.39 504.36 344.98 497.78C373.46 469.25 601.29 241 629.77 212.47C636.37 205.89 639.99 196.84 640 187.47C640 178.09 636.37 169.17 629.77 162.58C625.58 158.36 610.9 143.59 608.81 141.47Z" id="b5t2m1nZI1"></path><path d="M608.81 141.47C602.21 134.88 593.43 131.25 584.05 131.25C574.67 131.25 565.88 134.88 559.29 141.47C543.34 157.42 463.63 237.14 320.14 380.63C176.49 236.98 96.69 157.17 80.72 141.21C74.14 134.62 65.35 130.99 55.97 130.99C46.6 130.99 37.8 134.62 31.21 141.21C29.11 143.31 12.34 160.09 10.24 162.19C-3.41 175.83 -3.41 198.06 10.24 211.7C38.75 240.31 266.79 469.17 295.3 497.78C301.88 504.37 310.66 509.01 320.12 509.01C320.13 509.01 320.22 509.01 320.23 509.01C329.61 509.01 338.39 504.36 344.98 497.78C373.46 469.25 601.29 241 629.77 212.47C636.37 205.89 639.99 196.84 640 187.47C640 178.09 636.37 169.17 629.77 162.58C625.58 158.36 610.9 143.59 608.81 141.47Z" id="b4sBHLaY3y"></path></defs><g><g><g><use xlink:href="#b5t2m1nZI1" opacity="1" fill="#000000" fill-opacity="1"></use><g><use xlink:href="#b5t2m1nZI1" opacity="1" fill-opacity="0" stroke="#000000" stroke-width="1" stroke-opacity="0"></use></g></g><g><use xlink:href="#b4sBHLaY3y" opacity="1" fill="#ffffff" fill-opacity="1"></use>
<g><use xlink:href="#b4sBHLaY3y" opacity="1" fill-opacity="0" stroke="#060000" stroke-width="1" stroke-opacity="1"></use>
</g></g></g></g></svg>