<?xml version="1.0" encoding="UTF-8" standalone="no"?>
<!DOCTYPE svg PUBLIC "-//W3C//DTD SVG 1.1//EN" "http://www.w3.org/Graphics/SVG/1.1/DTD/svg11.dtd">
<svg version="1.1" xmlns="http://www.w3.org/2000/svg" xmlns:xlink="http://www.w3.org/1999/xlink" preserveAspectRatio="xMidYMid meet" viewBox="0 0 640 640" width="640" height="640"><defs><path d="M36.26 96.36C16.27 96.36 0 112.59 0 132.53C0 162.92 0 406.08 0 436.47C0 456.41 16.27 472.64 36.26 472.64C79.73 472.64 427.5 472.64 470.98 472.64C490.97 472.64 507.24 456.41 507.24 436.47C507.24 406.08 507.24 162.92 507.24 132.53C507.24 112.59 490.97 96.36 470.98 96.36C384.03 96.36 79.73 96.36 36.26 96.36ZM190.97 303.64C177.3 303.64 67.96 303.64 54.29 303.64C49.79 303.64 46.15 300 46.15 295.5C46.15 293.3 46.15 275.7 46.15 273.5C46.15 269 49.79 265.36 54.29 265.36C67.96 265.36 177.3 265.36 190.97 265.36C195.47 265.36 199.11 269 199.11 273.5C199.11 274.97 199.11 282.3 199.11 295.5L199.11 295.5C196.68 300.93 193.97 303.64 190.97 303.64ZM457.34 303.64C454.06 303.64 437.66 303.64 408.14 303.64C408.14 333.16 408.14 349.56 408.14 352.84C408.14 357.34 404.5 360.98 400 360.98C397.8 360.98 380.2 360.98 378 360.98C373.5 360.98 369.86 357.34 369.86 352.84C369.86 349.56 369.86 333.16 369.86 303.64C340.34 303.64 323.94 303.64 320.66 303.64C316.16 303.64 312.52 300 312.52 295.5C312.52 293.3 312.52 275.7 312.52 273.5C312.52 269 316.16 265.36 320.66 265.36C323.94 265.36 340.34 265.36 369.86 265.36C369.86 235.84 369.86 219.44 369.86 216.16C369.86 211.67 373.5 208.02 378 208.02C380.2 208.02 397.8 208.02 400 208.02C404.5 208.02 408.14 211.67 408.14 216.16C408.14 219.44 408.14 235.84 408.14 265.36C437.66 265.36 454.06 265.36 457.34 265.36C461.84 265.36 465.48 269.01 465.48 273.5C465.48 274.97 465.48 282.3 465.48 295.5C463.05 300.93 460.34 303.64 457.34 303.64Z" id="dhyAh9yLI"></path><path d="M529.15 174.85C527.16 174.85 525.56 177.57 525.56 180.93C525.56 201.65 525.56 367.36 525.56 388.07C525.56 391.43 527.16 394.16 529.15 394.16C529.51 394.16 532.38 394.16 532.74 394.16C552.73 394.16 569 377.93 569 357.99C569 343.3 569 225.71 569 211.01C569 191.07 552.73 174.85 532.74 174.85C532.02 174.85 531.13 174.85 529.15 174.85Z" id="d4g0qHKKO7"></path></defs><g><g><g><use xlink:href="#dhyAh9yLI" opacity="1" fill="#00a8ff" fill-opacity="1"></use><g><use xlink:href="#dhyAh9yLI" opacity="1" fill-opacity="0" stroke="#000000" stroke-width="1" stroke-opacity="1"></use></g><g><filter id="shadow5920149" x="-39" y="57.36" width="590.24" height="454.27" filterUnits="userSpaceOnUse" primitiveUnits="userSpaceOnUse"><feFlood></feFlood><feComposite in2="SourceAlpha" operator="out"></feComposite><feGaussianBlur stdDeviation="3.46"></feGaussianBlur><feOffset dx="5" dy="0" result="afterOffset"></feOffset><feFlood flood-color="#000000" flood-opacity="0.5"></feFlood><feComposite in2="afterOffset" operator="in"></feComposite><feMorphology operator="dilate" radius="5"></feMorphology><feComposite in2="SourceAlpha" operator="in"></feComposite></filter><path d="M36.26 96.36C16.27 96.36 0 112.59 0 132.53C0 162.92 0 406.08 0 436.47C0 456.41 16.27 472.64 36.26 472.64C79.73 472.64 427.5 472.64 470.98 472.64C490.97 472.64 507.24 456.41 507.24 436.47C507.24 406.08 507.24 162.92 507.24 132.53C507.24 112.59 490.97 96.36 470.98 96.36C384.03 96.36 79.73 96.36 36.26 96.36ZM190.97 303.64C177.3 303.64 67.96 303.64 54.29 303.64C49.79 303.64 46.15 300 46.15 295.5C46.15 293.3 46.15 275.7 46.15 273.5C46.15 269 49.79 265.36 54.29 265.36C67.96 265.36 177.3 265.36 190.97 265.36C195.47 265.36 199.11 269 199.11 273.5C199.11 274.97 199.11 282.3 199.11 295.5L199.11 295.5C196.68 300.93 193.97 303.64 190.97 303.64ZM457.34 303.64C454.06 303.64 437.66 303.64 408.14 303.64C408.14 333.16 408.14 349.56 408.14 352.84C408.14 357.34 404.5 360.98 400 360.98C397.8 360.98 380.2 360.98 378 360.98C373.5 360.98 369.86 357.34 369.86 352.84C369.86 349.56 369.86 333.16 369.86 303.64C340.34 303.64 323.94 303.64 320.66 303.64C316.16 303.64 312.52 300 312.52 295.5C312.52 293.3 312.52 275.7 312.52 273.5C312.52 269 316.16 265.36 320.66 265.36C323.94 265.36 340.34 265.36 369.86 265.36C369.86 235.84 369.86 219.44 369.86 216.16C369.86 211.67 373.5 208.02 378 208.02C380.2 208.02 397.8 208.02 400 208.02C404.5 208.02 408.14 211.67 408.14 216.16C408.14 219.44 408.14 235.84 408.14 265.36C437.66 265.36 454.06 265.36 457.34 265.36C461.84 265.36 465.48 269.01 465.48 273.5C465.48 274.97 465.48 282.3 465.48 295.5C463.05 300.93 460.34 303.64 457.34 303.64Z" id="bUYmIYRQ3" fill="white" fill-opacity="1" filter="url(#shadow5920149)"></path></g></g><g><use xlink:href="#d4g0qHKKO7" opacity="1" fill="#00a8ff" fill-opacity="1"></use><g><use xlink:href="#d4g0qHKKO7" opacity="1" fill-opacity="0" stroke="#000000" stroke-width="1" stroke-opacity="1"></use></g><g><filter id="shadow14932116" x="486.56" y="135.85" width="126.44" height="297.31" filterUnits="userSpaceOnUse" primitiveUnits="userSpaceOnUse"><feFlood></feFlood><feComposite in2="SourceAlpha" operator="out"></feComposite><feGaussianBlur stdDeviation="3.46"></feGaussianBlur><feOffset dx="5" dy="0" result="afterOffset"></feOffset><feFlood flood-color="#000000" flood-opacity="0.5"></feFlood><feComposite in2="afterOffset" operator="in"></feComposite><feMorphology operator="dilate" radius="5"></feMorphology><feComposite in2="SourceAlpha" operator="in"></feComposite></filter><path d="M529.15 174.85C527.16 174.85 525.56 177.57 525.56 180.93C525.56 201.65 525.56 367.36 525.56 388.07C525.56 391.43 527.16 394.16 529.15 394.16C529.51 394.16 532.38 394.16 532.74 394.16C552.73 394.16 569 377.93 569 357.99C569 343.3 569 225.71 569 211.01C569 191.07 552.73 174.85 532.74 174.85C532.02 174.85 531.13 174.85 529.15 174.85Z" id="g18xxwWO4f" fill="white" fill-opacity="1" filter="url(#shadow14932116)"></path></g></g></g></g></svg>