<?xml version="1.0" encoding="iso-8859-1"?>
<!-- Generator: Adobe Illustrator 16.0.0, SVG Export Plug-In . SVG Version: 6.00 Build 0)  -->
<!DOCTYPE svg PUBLIC "-//W3C//DTD SVG 1.1//EN" "http://www.w3.org/Graphics/SVG/1.1/DTD/svg11.dtd">
<svg version="1.1" id="Capa_1" xmlns="http://www.w3.org/2000/svg" xmlns:xlink="http://www.w3.org/1999/xlink" x="0px" y="0px"
	 width="569.16px" height="569.16px" viewBox="0 0 569.16 569.16" style="enable-background:new 0 0 569.16 569.16;"
	 xml:space="preserve">
<g>
	<g>
		<path d="M471.108,96.392H36.27c-20,0-36.27,16.227-36.27,36.172v304.033c0,19.945,16.27,36.172,36.27,36.172h434.838
			c20,0,36.271-16.227,36.271-36.172V132.564C507.382,112.619,491.108,96.392,471.108,96.392z M199.167,295.585
			c0,4.496-3.645,8.141-8.14,8.141H54.303c-4.495,0-8.14-3.645-8.14-8.141v-22.01c0-4.495,3.645-8.14,8.14-8.14h136.724
			c4.495,0,8.14,3.645,8.14,8.14V295.585L199.167,295.585z M465.612,295.585c0,4.496-3.644,8.141-8.14,8.141h-49.217v49.217
			c0,4.494-3.645,8.139-8.14,8.139h-22.011c-4.495,0-8.14-3.645-8.14-8.139v-49.217h-49.217c-4.495,0-8.14-3.645-8.14-8.141v-22.01
			c0-4.495,3.645-8.14,8.14-8.14h49.217v-49.214c0-4.495,3.645-8.14,8.14-8.14h22.011c4.495,0,8.14,3.645,8.14,8.14v49.217h49.217
			c4.495,0,8.14,3.645,8.14,8.14V295.585z"/>
		<path d="M532.89,174.896c0,0-1.606,0-3.592,0c-1.986,0-3.593,2.727-3.593,6.086v207.199c0,3.363,1.606,6.086,3.593,6.086h3.592
			c20,0,36.271-16.227,36.271-36.172V211.068C569.16,191.123,552.89,174.896,532.89,174.896z"/>
	</g>
</g>
<g>
</g>
<g>
</g>
<g>
</g>
<g>
</g>
<g>
</g>
<g>
</g>
<g>
</g>
<g>
</g>
<g>
</g>
<g>
</g>
<g>
</g>
<g>
</g>
<g>
</g>
<g>
</g>
<g>
</g>
</svg>
