<?xml version="1.0" encoding="UTF-8" standalone="no"?>
<!DOCTYPE svg PUBLIC "-//W3C//DTD SVG 1.1//EN" "http://www.w3.org/Graphics/SVG/1.1/DTD/svg11.dtd">
<svg version="1.1" xmlns="http://www.w3.org/2000/svg" xmlns:xlink="http://www.w3.org/1999/xlink" preserveAspectRatio="xMidYMid meet" viewBox="0 0 640 640" width="640" height="640"><defs><path d="M0 262.23C0 373.4 73.34 467.67 175.04 500.91C187.84 503.27 192.53 495.49 192.53 488.81C192.53 482.84 192.32 467.01 192.21 446.04C121 461.21 105.98 412.29 105.98 412.29C94.34 383.25 77.5 375.49 77.5 375.49C54.31 359.89 79.3 360.21 79.3 360.21C105 361.96 118.51 386.13 118.51 386.13C141.33 424.6 178.43 413.48 193.07 407.06C195.37 390.78 201.96 379.71 209.28 373.42C152.43 367.13 92.67 345.49 92.67 249.11C92.67 221.65 102.59 199.21 119.02 181.61C116.14 175.25 107.5 149.67 121.26 115.03C121.26 115.03 142.7 108.29 191.66 140.82C212.14 135.23 233.9 132.46 255.66 132.33C277.42 132.46 299.18 135.23 319.66 140.82C368.3 108.29 389.74 115.03 389.74 115.03C403.5 149.67 394.86 175.25 392.3 181.61C408.62 199.21 418.54 221.65 418.54 249.11C418.54 345.75 358.7 367.02 301.74 373.21C310.7 380.76 319.02 396.18 319.02 419.75C319.02 453.42 318.7 480.47 318.7 488.64C318.7 495.23 323.18 503.1 336.3 500.59C438.72 467.56 512 373.23 512 262.23C512 123.31 397.38 10.67 256 10.67C114.56 10.67 0 123.31 0 262.23Z" id="amM8ZC6Y0"></path></defs><g><g><g><use xlink:href="#amM8ZC6Y0" opacity="1" fill="#ffffff" fill-opacity="1"></use><g><use xlink:href="#amM8ZC6Y0" opacity="1" fill-opacity="0" stroke="#000000" stroke-width="1" stroke-opacity="1"></use></g></g></g></g></svg>