<?xml version="1.0" encoding="UTF-8" standalone="no"?>
<!DOCTYPE svg PUBLIC "-//W3C//DTD SVG 1.1//EN" "http://www.w3.org/Graphics/SVG/1.1/DTD/svg11.dtd">
<svg version="1.1" xmlns="http://www.w3.org/2000/svg" xmlns:xlink="http://www.w3.org/1999/xlink" preserveAspectRatio="xMidYMid meet" viewBox="0 0 640 640" width="640" height="640"><defs><path d="M456.4 0.66L464.47 1.48L472.44 2.62L480.3 4.06L488.06 5.81L495.69 7.86L503.21 10.2L510.59 12.82L517.84 15.72L524.95 18.89L531.9 22.33L538.7 26.02L545.34 29.97L551.81 34.16L558.11 38.59L564.22 43.26L570.15 48.15L575.88 53.26L581.42 58.59L586.74 64.12L591.85 69.85L596.74 75.78L601.41 81.89L605.84 88.19L610.03 94.66L613.98 101.3L617.67 108.1L621.11 115.05L624.28 122.16L627.18 129.41L629.8 136.79L632.14 144.31L634.19 151.94L635.94 159.7L637.38 167.56L638.52 175.53L639.34 183.6L639.83 191.76L640 200L640 440L639.83 448.24L639.34 456.4L638.52 464.47L637.38 472.44L635.94 480.3L634.19 488.06L632.14 495.69L629.8 503.21L627.18 510.59L624.28 517.84L621.11 524.95L617.67 531.9L613.98 538.7L610.03 545.34L605.84 551.81L601.41 558.11L596.74 564.22L591.85 570.15L586.74 575.88L581.42 581.42L575.88 586.74L570.15 591.85L564.22 596.74L558.11 601.41L551.81 605.84L545.34 610.03L538.7 613.98L531.9 617.67L524.95 621.11L517.84 624.28L510.59 627.18L503.21 629.8L495.69 632.14L488.06 634.19L480.3 635.94L472.44 637.38L464.47 638.52L456.4 639.34L448.24 639.83L440 640L200 640L191.76 639.83L183.6 639.34L175.53 638.52L167.56 637.38L159.7 635.94L151.94 634.19L144.31 632.14L136.79 629.8L129.41 627.18L122.16 624.28L115.05 621.11L108.1 617.67L101.3 613.98L94.66 610.03L88.19 605.84L81.89 601.41L75.78 596.74L69.85 591.85L64.12 586.74L58.59 581.42L53.26 575.88L48.15 570.15L43.26 564.22L38.59 558.11L34.16 551.81L29.97 545.34L26.02 538.7L22.33 531.9L18.89 524.95L15.72 517.84L12.82 510.59L10.2 503.21L7.86 495.69L5.81 488.06L4.06 480.3L2.62 472.44L1.48 464.47L0.66 456.4L0.17 448.24L0 440L0 200L0.17 191.76L0.66 183.6L1.48 175.53L2.62 167.56L4.06 159.7L5.81 151.94L7.86 144.31L10.2 136.79L12.82 129.41L15.72 122.16L18.89 115.05L22.33 108.1L26.02 101.3L29.97 94.66L34.16 88.19L38.59 81.89L43.26 75.78L48.15 69.85L53.26 64.12L58.59 58.59L64.12 53.26L69.85 48.15L75.78 43.26L81.89 38.59L88.19 34.16L94.66 29.97L101.3 26.02L108.1 22.33L115.05 18.89L122.16 15.72L129.41 12.82L136.79 10.2L144.31 7.86L151.94 5.81L159.7 4.06L167.56 2.62L175.53 1.48L183.6 0.66L191.76 0.17L200 0L440 0L448.24 0.17L456.4 0.66ZM194.24 60.12L188.53 60.46L182.89 61.04L177.32 61.84L171.82 62.85L166.4 64.08L161.05 65.51L155.8 67.15L150.63 68.99L145.56 71.02L140.58 73.24L135.71 75.65L130.95 78.24L126.31 81L121.78 83.94L117.37 87.05L113.09 90.31L108.94 93.74L104.92 97.32L101.05 101.05L97.32 104.92L93.74 108.94L90.31 113.09L87.05 117.37L83.94 121.78L81 126.31L78.24 130.95L75.65 135.71L73.24 140.58L71.02 145.56L68.99 150.63L67.15 155.8L65.51 161.05L64.08 166.4L62.85 171.82L61.84 177.32L61.04 182.89L60.46 188.53L60.12 194.24L60 200L60 440L60.12 445.76L60.46 451.47L61.04 457.11L61.84 462.68L62.85 468.18L64.08 473.6L65.51 478.95L67.15 484.2L68.99 489.37L71.02 494.44L73.24 499.42L75.65 504.29L78.24 509.05L81 513.69L83.94 518.22L87.05 522.63L90.31 526.91L93.74 531.06L97.32 535.08L101.05 538.95L104.92 542.68L108.94 546.26L113.09 549.69L117.37 552.95L121.78 556.06L126.31 559L130.95 561.76L135.71 564.35L140.58 566.76L145.56 568.98L150.63 571.01L155.8 572.85L161.05 574.49L166.4 575.92L171.82 577.15L177.32 578.16L182.89 578.96L188.53 579.54L194.24 579.88L200 580L440 580L443.85 579.91L447.68 579.65L451.5 579.21L455.3 578.6L459.08 577.81L462.84 576.85L466.58 575.71L470.3 574.4L474.01 572.91L477.7 571.25L481.37 569.41L485.02 567.4L488.66 565.21L492.28 562.85L495.88 560.31L499.46 557.6L503.02 554.71L506.56 551.65L510.09 548.41L513.6 545L517.09 541.41L520.56 537.65L524.02 533.71L527.46 529.6L530.88 525.31L534.28 520.85L537.66 516.21L541.02 511.4L544.37 506.41L547.7 501.25L551.01 495.91L554.3 490.4L557.58 484.71L560.84 478.85L564.07 472.81L567.3 466.6L570.5 460.21L573.68 453.65L576.85 446.91L580 440L580 200L579.88 194.24L579.54 188.53L578.96 182.89L578.16 177.32L577.15 171.82L575.92 166.4L574.49 161.05L572.85 155.8L571.01 150.63L568.98 145.56L566.76 140.58L564.35 135.71L561.76 130.95L559 126.31L556.06 121.78L552.95 117.37L549.69 113.09L546.26 108.94L542.68 104.92L538.95 101.05L535.08 97.32L531.06 93.74L526.91 90.31L522.63 87.05L518.22 83.94L513.69 81L509.05 78.24L504.29 75.65L499.42 73.24L494.44 71.02L489.37 68.99L484.2 67.15L478.95 65.51L473.6 64.08L468.18 62.85L462.68 61.84L457.11 61.04L451.47 60.46L445.76 60.12L440 60L200 60L194.24 60.12Z" id="b2e5RJmExG"></path><path d="M333.12 160.53L339.58 161.19L345.95 162.09L352.24 163.25L358.45 164.65L364.56 166.29L370.57 168.16L376.48 170.25L382.28 172.57L387.96 175.11L393.53 177.86L398.97 180.82L404.28 183.97L409.46 187.33L414.49 190.87L419.38 194.6L424.12 198.52L428.71 202.61L433.14 206.87L437.39 211.29L441.48 215.88L445.4 220.62L449.13 225.51L452.67 230.54L456.03 235.72L459.18 241.03L462.14 246.47L464.89 252.04L467.43 257.72L469.75 263.52L471.84 269.43L473.71 275.44L475.35 281.55L476.75 287.76L477.91 294.05L478.81 300.42L479.47 306.88L479.87 313.41L480 320L479.87 326.59L479.47 333.12L478.81 339.58L477.91 345.95L476.75 352.24L475.35 358.45L473.71 364.56L471.84 370.57L469.75 376.48L467.43 382.28L464.89 387.96L462.14 393.53L459.18 398.97L456.03 404.28L452.67 409.46L449.13 414.49L445.4 419.38L441.48 424.12L437.39 428.71L433.14 433.14L428.71 437.39L424.12 441.48L419.38 445.4L414.49 449.13L409.46 452.67L404.28 456.03L398.97 459.18L393.53 462.14L387.96 464.89L382.28 467.43L376.48 469.75L370.57 471.84L364.56 473.71L358.45 475.35L352.24 476.75L345.95 477.91L339.58 478.81L333.12 479.47L326.59 479.87L320 480L313.41 479.87L306.88 479.47L300.42 478.81L294.05 477.91L287.76 476.75L281.55 475.35L275.44 473.71L269.43 471.84L263.52 469.75L257.72 467.43L252.04 464.89L246.47 462.14L241.03 459.18L235.72 456.03L230.54 452.67L225.51 449.13L220.62 445.4L215.88 441.48L211.29 437.39L206.87 433.14L202.61 428.71L198.52 424.12L194.6 419.38L190.87 414.49L187.33 409.46L183.97 404.28L180.82 398.97L177.86 393.53L175.11 387.96L172.57 382.28L170.25 376.48L168.16 370.57L166.29 364.56L164.65 358.45L163.25 352.24L162.09 345.95L161.19 339.58L160.53 333.12L160.13 326.59L160 320L160.13 313.41L160.53 306.88L161.19 300.42L162.09 294.05L163.25 287.76L164.65 281.55L166.29 275.44L168.16 269.43L170.25 263.52L172.57 257.72L175.11 252.04L177.86 246.47L180.82 241.03L183.97 235.72L187.33 230.54L190.87 225.51L194.6 220.62L198.52 215.88L202.61 211.29L206.87 206.87L211.29 202.61L215.88 198.52L220.62 194.6L225.51 190.87L230.54 187.33L235.72 183.97L241.03 180.82L246.47 177.86L252.04 175.11L257.72 172.57L263.52 170.25L269.43 168.16L275.44 166.29L281.55 164.65L287.76 163.25L294.05 162.09L300.42 161.19L306.88 160.53L313.41 160.13L320 160L326.59 160.13L333.12 160.53ZM311.81 220.33L307.79 220.74L303.81 221.31L299.88 222.03L296 222.91L292.19 223.93L288.43 225.1L284.74 226.42L281.12 227.87L277.57 229.46L274.09 231.17L270.69 233.02L267.37 235L264.14 237.1L260.99 239.31L257.93 241.65L254.97 244.09L252.1 246.65L249.33 249.32L246.67 252.08L244.11 254.95L241.66 257.91L239.33 260.97L237.11 264.12L235.01 267.35L233.03 270.67L231.18 274.07L229.46 277.55L227.87 281.1L226.42 284.73L225.11 288.42L223.94 292.17L222.91 295.99L222.04 299.87L221.31 303.8L220.74 307.78L220.33 311.81L220.08 315.88L220 320L220.08 324.11L220.33 328.19L220.74 332.21L221.31 336.19L222.04 340.12L222.91 344L223.94 347.81L225.11 351.57L226.42 355.26L227.87 358.88L229.46 362.43L231.18 365.91L233.03 369.31L235.01 372.63L237.11 375.86L239.33 379.01L241.66 382.07L244.11 385.03L246.67 387.9L249.33 390.67L252.1 393.33L254.97 395.89L257.93 398.34L260.99 400.67L264.14 402.89L267.37 404.99L270.69 406.97L274.09 408.82L277.57 410.54L281.12 412.13L284.74 413.58L288.43 414.89L292.19 416.06L296 417.09L299.88 417.96L303.81 418.69L307.79 419.26L311.81 419.67L315.89 419.92L320 420L324.11 419.92L328.19 419.67L332.21 419.26L336.19 418.69L340.12 417.96L344 417.09L347.81 416.06L351.57 414.89L355.26 413.58L358.88 412.13L362.43 410.54L365.91 408.82L369.31 406.97L372.63 404.99L375.86 402.89L379.01 400.67L382.07 398.34L385.03 395.89L387.9 393.33L390.67 390.67L393.33 387.9L395.89 385.03L398.34 382.07L400.67 379.01L402.89 375.86L404.99 372.63L406.97 369.31L408.82 365.91L410.54 362.43L412.13 358.88L413.58 355.26L414.89 351.57L416.06 347.81L417.09 344L417.96 340.12L418.69 336.19L419.26 332.21L419.67 328.19L419.92 324.11L420 320L419.92 315.88L419.67 311.81L419.26 307.78L418.69 303.8L417.96 299.87L417.09 295.99L416.06 292.17L414.89 288.42L413.58 284.73L412.13 281.1L410.54 277.55L408.82 274.07L406.97 270.67L404.99 267.35L402.89 264.12L400.67 260.97L398.34 257.91L395.89 254.95L393.33 252.08L390.67 249.32L387.9 246.65L385.03 244.09L382.07 241.65L379.01 239.31L375.86 237.1L372.63 235L369.31 233.02L365.91 231.17L362.43 229.46L358.88 227.87L355.26 226.42L351.57 225.1L347.81 223.93L344 222.91L340.12 222.03L336.19 221.31L332.21 220.74L328.19 220.33L324.11 220.08L320 220L315.89 220.08L311.81 220.33Z" id="b7NJq4yTx"></path><path d="M492 126.68C480.23 126.68 470.68 136.23 470.68 148C470.68 159.77 480.23 169.32 492 169.32C503.77 169.32 513.32 159.77 513.32 148C513.32 136.23 503.77 126.68 492 126.68Z" id="a38nx3okW3"></path></defs><g><g><g><use xlink:href="#b2e5RJmExG" opacity="1" fill="#ffffff" fill-opacity="1"></use><g><use xlink:href="#b2e5RJmExG" opacity="1" fill-opacity="0" stroke="#060101" stroke-width="1" stroke-opacity="0.98"></use></g></g><g><use xlink:href="#b7NJq4yTx" opacity="1" fill="#ffffff" fill-opacity="1"></use><g><use xlink:href="#b7NJq4yTx" opacity="1" fill-opacity="0" stroke="#030000" stroke-width="1" stroke-opacity="1"></use></g></g><g><use xlink:href="#a38nx3okW3" opacity="1" fill="#ffffff" fill-opacity="1"></use><g><use xlink:href="#a38nx3okW3" opacity="1" fill-opacity="0" stroke="#030000" stroke-width="2" stroke-opacity="1"></use></g></g></g></g></svg>