<?xml version="1.0" encoding="UTF-8" standalone="no"?>
<!DOCTYPE svg PUBLIC "-//W3C//DTD SVG 1.1//EN" "http://www.w3.org/Graphics/SVG/1.1/DTD/svg11.dtd">
<svg version="1.1" xmlns="http://www.w3.org/2000/svg" xmlns:xlink="http://www.w3.org/1999/xlink" preserveAspectRatio="xMidYMid meet" viewBox="2.1404751110824236 -0.999997357477783 1315.7191035802243 175.00000549411143" width="1316" height="171.56"><defs><path d="M871.17 0.3L871.17 170.87C962.64 170.87 1013.45 170.87 1023.62 170.87C1040.29 163.8 1049.22 151.56 1052.68 137.28C1042.79 137.28 993.34 137.28 904.33 137.28L904.41 0.22L871.17 0.3ZM1153.18 34.3C1229.48 34.3 1271.87 34.3 1280.34 34.3C1298.01 30.8 1311.17 15.21 1314.86 0.13C1295.24 0.13 1138.26 0.13 1118.64 0.13C1122.31 15.21 1135.66 30.8 1153.18 34.3M777.53 0.26C765.09 0.26 702.89 0.26 590.93 0.26L590.93 101.04L743.66 101.04L743.66 136.42C671.79 136.49 631.86 136.52 623.87 136.53C605.08 141.75 589.2 154.35 581.24 171C581.89 170.99 585.12 170.93 590.93 170.83L776.49 170.83L776.49 67.54L623.87 67.54L623.87 33.82L741.35 33.82C763.05 21.41 775.11 10.23 777.53 0.26ZM1156.85 170.83L1156.85 102.16L1277.24 102.16L1277.24 170.83L1310.29 170.83L1310.29 67.84L1123.78 67.67L1123.78 170.83L1156.85 170.83ZM333.92 34.19C410.21 34.19 452.59 34.19 461.07 34.19C478.76 30.68 491.89 15.08 495.58 0C475.96 0 319.01 0 299.39 0C303.05 15.08 316.39 30.68 333.92 34.19M37.59 34.36C41.16 34.36 59 34.36 91.11 34.36L93.83 35.44L93.83 170.48L127.26 170.48L127.26 35.44L130.28 34.36C162.44 34.36 180.3 34.36 183.87 34.36C201.75 29.75 214.39 15.32 218.17 0.39C218.17 0.37 218.17 0.26 218.17 0.06L3.14 0.06L3.14 0.39C14.3 20.48 25.78 31.8 37.59 34.36ZM333.92 170.85C410.21 170.85 452.59 170.85 461.07 170.85C478.76 167.31 491.89 151.76 495.58 136.66C475.96 136.66 319.01 136.66 299.39 136.66C303.05 151.76 316.39 167.31 333.92 170.85M333.92 101.6C410.21 101.6 452.59 101.6 461.07 101.6C478.76 98.11 491.89 82.51 495.58 67.43C475.96 67.43 319.01 67.43 299.39 67.43C303.05 82.51 316.39 98.11 333.92 101.6" id="d26otGGZVQ"></path></defs><g><g><use xlink:href="#d26otGGZVQ" opacity="1" fill="#f60707" fill-opacity="1"></use><g><use xlink:href="#d26otGGZVQ" opacity="1" fill-opacity="0" stroke="#000000" stroke-width="1" stroke-opacity="0"></use></g></g></g></svg>