<?xml version="1.0" encoding="UTF-8" standalone="no"?>
<!DOCTYPE svg PUBLIC "-//W3C//DTD SVG 1.1//EN" "http://www.w3.org/Graphics/SVG/1.1/DTD/svg11.dtd">
<svg version="1.1" xmlns="http://www.w3.org/2000/svg" xmlns:xlink="http://www.w3.org/1999/xlink" preserveAspectRatio="xMidYMid meet" viewBox="0 0 640 640" width="640" height="640"><defs><path d="M78.4 17.4C78.4 18.11 78.39 18.96 78.38 19.52C80.05 19.56 84.3 20.34 85.64 23.84C83.76 28.17 68.76 62.79 66.89 67.12C65.97 64.97 57.25 45.6 56.25 43.11C57.16 41.23 64.41 26.19 65.32 24.3C67.19 21.44 70.77 19.6 74.23 19.46C74.23 19.33 74.23 18.68 74.22 17.5C62.92 17.49 56.65 17.48 55.39 17.48C55.35 17.98 55.39 19.03 55.32 19.55C60.64 19.69 62.54 20.88 61.26 24.05C59.16 28.83 54.76 37.87 53.89 39.52C51.2 33.89 49.49 29.55 46.55 23.47C45.29 20.64 48.08 19.55 51.03 19.46C51.03 19.33 51.03 18.67 51.03 17.48C37.95 17.44 30.68 17.42 29.23 17.42C29.24 18.35 29.21 18.87 29.21 19.55C32.24 19.59 36.19 19.92 37.76 22.56C39.85 26.62 46.8 42.75 48.91 47.06C46.22 52.22 39.7 64.4 37.37 68.97C34.02 61.54 21.64 32.3 18.15 24.75C16.84 21.53 21.88 19.67 24.79 19.54C24.79 19.39 24.8 18.68 24.81 17.39C9.92 17.39 1.65 17.39 0 17.39C0 18.03 0.03 19.1 0.03 19.58C4.05 19.54 9.93 26.14 11.61 30.25C18.85 47.05 26.32 63.76 33.53 80.58C33.53 80.6 35.78 80.63 35.81 80.58C40.52 70.94 46.03 60.8 51.01 51.04C52.26 53.99 62.3 77.64 63.56 80.6C63.56 80.6 65.64 80.61 65.65 80.61C73.61 62.42 85.53 34.51 89.43 25.7C91.02 21.94 93.67 19.64 97.97 19.51C97.97 19.38 97.98 18.73 98 17.56L97.97 17.46C86.23 17.42 79.7 17.4 78.4 17.4Z" id="b31vqJawpB"></path></defs><g><g><g><use xlink:href="#b31vqJawpB" opacity="1" fill="#ffffff" fill-opacity="1"></use><g><use xlink:href="#b31vqJawpB" opacity="1" fill-opacity="0" stroke="#000000" stroke-width="1" stroke-opacity="1"></use></g></g></g></g></svg>